<?xml version="1.0" encoding="utf-8"?>
<!-- Generator: Adobe Illustrator 18.0.0, SVG Export Plug-In . SVG Version: 6.00 Build 0)  -->
<!DOCTYPE svg PUBLIC "-//W3C//DTD SVG 1.1//EN" "http://www.w3.org/Graphics/SVG/1.1/DTD/svg11.dtd">
<svg version="1.1" xmlns="http://www.w3.org/2000/svg" xmlns:xlink="http://www.w3.org/1999/xlink" x="0px" y="0px"
	 viewBox="0 0 34.5 26" enable-background="new 0 0 34.5 26" xml:space="preserve">
<g id="icon-project-status">
</g>
<g id="icon-feature-types">
</g>
<g id="icon-map-data">
</g>
<g id="drawing_features">
</g>
<g id="Search_Filter_Icons_Specific_Size">
	<g id="bars" display="none">
		<g display="inline">
			<path fill="#AF4925" d="M274.7,27.6c0,2.8-2.2,5-5,5h-290c-2.8,0-5-2.3-5-5v-30c0-2.7,2.2-5,5-5h290c2.8,0,5,2.2,5,5V27.6z"/>
		</g>
	</g>
	<g>
		<g id="Map_Data_x3C_Group_x3E__2_">
			<path fill="#FFFFFF" d="M20.2,21.9H0V6.9h10.1V0H26v11.1h8.5v4.4H20.2V21.9z M0.9,21.1h18.5v-6.4h14.3V12h-8.5V0.9H11v6.9H0.9
				V21.1z"/>
			<path fill="#FFFFFF" d="M0,5.9l9.2,0l0-5.9C8.3,2.5,5.3,4.5,0,5.9z"/>
		</g>
		<path fill="#FFFFFF" d="M21.4,21.9v-5.5h13.1v2.2h-5.4c-1,0.2-1.5,0.7-1.6,1.6v1.7H21.4z"/>
		<path fill="#FFFFFF" d="M21.4,16.4v5.5v1H0V26h27.6v-4.1v-1.7c0-0.9,0.6-1.4,1.6-1.6h5.4v-2.2H21.4z"/>
	</g>
</g>
</svg>
