<?xml version="1.0" encoding="UTF-8" standalone="no"?>
<!-- Generator: Adobe Illustrator 18.0.0, SVG Export Plug-In . SVG Version: 6.00 Build 0)  -->

<svg
   xmlns:dc="http://purl.org/dc/elements/1.1/"
   xmlns:cc="http://creativecommons.org/ns#"
   xmlns:rdf="http://www.w3.org/1999/02/22-rdf-syntax-ns#"
   xmlns:svg="http://www.w3.org/2000/svg"
   xmlns="http://www.w3.org/2000/svg"
   xmlns:sodipodi="http://sodipodi.sourceforge.net/DTD/sodipodi-0.dtd"
   xmlns:inkscape="http://www.inkscape.org/namespaces/inkscape"
   version="1.1"
   x="0px"
   y="0px"
   viewBox="0 0 34 26"
   enable-background="new 0 0 21 26"
   xml:space="preserve"
   id="svg2"
   inkscape:version="0.48.5 r10040"
   width="100%"
   height="100%"
   sodipodi:docname="status.svg"
   inkscape:export-filename="/Users/stdavis/Documents/Projects/wri-web/src/app/resources/images/status.png"
   inkscape:export-xdpi="90"
   inkscape:export-ydpi="90"><metadata
     id="metadata51"><rdf:RDF><cc:Work
         rdf:about=""><dc:format>image/svg+xml</dc:format><dc:type
           rdf:resource="http://purl.org/dc/dcmitype/StillImage" /><dc:title></dc:title></cc:Work></rdf:RDF></metadata><defs
     id="defs49" /><sodipodi:namedview
     pagecolor="#ffffff"
     bordercolor="#666666"
     borderopacity="1"
     objecttolerance="10"
     gridtolerance="10"
     guidetolerance="10"
     inkscape:pageopacity="0"
     inkscape:pageshadow="2"
     inkscape:window-width="871"
     inkscape:window-height="529"
     id="namedview47"
     showgrid="false"
     fit-margin-top="0"
     fit-margin-left="0"
     fit-margin-right="0"
     fit-margin-bottom="0"
     inkscape:zoom="1"
     inkscape:cx="53.5"
     inkscape:cy="13"
     inkscape:window-x="0"
     inkscape:window-y="0"
     inkscape:window-maximized="0"
     inkscape:current-layer="svg2" /><g
     id="icon-project-status" /><g
     id="icon-feature-types" /><g
     id="icon-map-data" /><g
     id="drawing_features" /><g
     id="Search_Filter_Icons_Specific_Size"
     transform="translate(6.5,3.5762787e-7)"
     inkscape:export-filename="/Users/stdavis/Documents/Projects/wri-web/src/app/resources/images/status.png"
     inkscape:export-xdpi="90"
     inkscape:export-ydpi="90"><g
       id="bars"
       display="none"
       style="display:none"><g
         display="inline"
         id="g10"
         style="display:inline"><path
           d="m 274.7,27.6 c 0,2.8 -2.2,5 -5,5 h -290 c -2.8,0 -5,-2.3 -5,-5 v -30 c 0,-2.8 2.2,-5 5,-5 h 290 c 2.8,0 5,2.2 5,5 v 30 z"
           id="path12"
           inkscape:connector-curvature="0"
           style="fill:#1c7773" /></g></g><g
       id="Traffic_Light_Status_x3C_Group_x3E__1_"><g
         id="g15"><g
           id="g17"><g
             id="g19"><circle
               cx="10.8"
               cy="12.1"
               r="2.5999999"
               id="circle21"
               sodipodi:cx="10.8"
               sodipodi:cy="12.1"
               sodipodi:rx="2.5999999"
               sodipodi:ry="2.5999999"
               style="fill:#ffffff"
               d="m 13.4,12.1 c 0,1.435941 -1.16406,2.6 -2.6,2.6 -1.4359401,0 -2.5999997,-1.164059 -2.5999997,-2.6 0,-1.43594 1.1640596,-2.5999995 2.5999997,-2.5999995 1.43594,0 2.6,1.1640595 2.6,2.5999995 z" /></g><g
             id="g23"><circle
               cx="10.5"
               cy="4.4000001"
               r="2.5999999"
               id="circle25"
               sodipodi:cx="10.5"
               sodipodi:cy="4.4000001"
               sodipodi:rx="2.5999999"
               sodipodi:ry="2.5999999"
               style="fill:#ffffff"
               d="M 13.1,4.4000001 C 13.1,5.8359404 11.93594,7 10.5,7 9.0640597,7 7.9000001,5.8359404 7.9000001,4.4000001 c 0,-1.4359403 1.1640596,-2.5999999 2.5999999,-2.5999999 1.43594,0 2.6,1.1640596 2.6,2.5999999 z" /></g><g
             id="g27"><path
               d="M 4.8,0 V 24.4 H 16.3 V 0 H 4.8 z m 5.7,0.9 c 2,0 3.6,1.6 3.6,3.6 0,2 -1.6,3.5 -3.6,3.5 -2,0 -3.6,-1.6 -3.6,-3.6 0,-2 1.6,-3.5 3.6,-3.5 z m 0.3,14.8 c -2,0 -3.6,-1.6 -3.6,-3.6 0,-2 1.6,-3.6 3.6,-3.6 2,0 3.6,1.6 3.6,3.6 0,2 -1.7,3.6 -3.6,3.6 z"
               id="path29"
               inkscape:connector-curvature="0"
               style="fill:#ffffff" /></g></g></g><circle
         cx="10.5"
         cy="19.9"
         r="3.0999999"
         id="circle31"
         sodipodi:cx="10.5"
         sodipodi:cy="19.9"
         sodipodi:rx="3.0999999"
         sodipodi:ry="3.0999999"
         style="fill:#1c7773"
         d="m 13.6,19.9 c 0,1.712082 -1.387917,3.1 -3.1,3.1 -1.7120827,0 -3.0999999,-1.387918 -3.0999999,-3.1 0,-1.712083 1.3879172,-3.1 3.0999999,-3.1 1.712083,0 3.1,1.387917 3.1,3.1 z" /><path
         d="m 18,4.8 0,1.4 H 16.7 V 0.8 H 21 c -0.5,2.3 -1.7,3.3 -3,4 z"
         id="path33"
         inkscape:connector-curvature="0"
         style="fill:#ffffff" /><path
         d="M 3,4.8 3,6.2 H 4.3 V 0.8 H 0 c 0.5,2.3 1.7,3.3 3,4 z"
         id="path35"
         inkscape:connector-curvature="0"
         style="fill:#ffffff" /><path
         d="M 18,12.6 18,14 H 16.7 V 8.6 H 21 c -0.5,2.3 -1.7,3.3 -3,4 z"
         id="path37"
         inkscape:connector-curvature="0"
         style="fill:#ffffff" /><path
         d="M 3,12.6 3,14 H 4.3 V 8.6 H 0 c 0.5,2.3 1.7,3.3 3,4 z"
         id="path39"
         inkscape:connector-curvature="0"
         style="fill:#ffffff" /><path
         d="m 18,20.8 0,1.4 H 16.7 V 16.8 H 21 c -0.5,2.3 -1.7,3.3 -3,4 z"
         id="path41"
         inkscape:connector-curvature="0"
         style="fill:#ffffff" /><path
         d="m 3,20.8 0,1.4 H 4.3 V 16.8 H 0 c 0.5,2.3 1.7,3.3 3,4 z"
         id="path43"
         inkscape:connector-curvature="0"
         style="fill:#ffffff" /><rect
         x="7.5"
         y="24.4"
         width="6"
         height="1.6"
         id="rect45"
         style="fill:#ffffff" /></g></g></svg>