<?xml version="1.0" encoding="UTF-8" standalone="no"?>
<!-- Generator: Adobe Illustrator 18.0.0, SVG Export Plug-In . SVG Version: 6.00 Build 0)  -->

<svg
   xmlns:dc="http://purl.org/dc/elements/1.1/"
   xmlns:cc="http://creativecommons.org/ns#"
   xmlns:rdf="http://www.w3.org/1999/02/22-rdf-syntax-ns#"
   xmlns:svg="http://www.w3.org/2000/svg"
   xmlns="http://www.w3.org/2000/svg"
   xmlns:sodipodi="http://sodipodi.sourceforge.net/DTD/sodipodi-0.dtd"
   xmlns:inkscape="http://www.inkscape.org/namespaces/inkscape"
   version="1.1"
   x="0px"
   y="0px"
   viewBox="0 0 34 26"
   enable-background="new 0 0 22 26"
   xml:space="preserve"
   id="svg2"
   inkscape:version="0.48.5 r10040"
   width="100%"
   height="100%"
   sodipodi:docname="type.svg"
   inkscape:export-filename="/Users/stdavis/Documents/Projects/wri-web/src/app/resources/images/type.png"
   inkscape:export-xdpi="90"
   inkscape:export-ydpi="90"><metadata
     id="metadata23"><rdf:RDF><cc:Work
         rdf:about=""><dc:format>image/svg+xml</dc:format><dc:type
           rdf:resource="http://purl.org/dc/dcmitype/StillImage" /><dc:title></dc:title></cc:Work></rdf:RDF></metadata><defs
     id="defs21" /><sodipodi:namedview
     pagecolor="#ffffff"
     bordercolor="#666666"
     borderopacity="1"
     objecttolerance="10"
     gridtolerance="10"
     guidetolerance="10"
     inkscape:pageopacity="0"
     inkscape:pageshadow="2"
     inkscape:window-width="1151"
     inkscape:window-height="574"
     id="namedview19"
     showgrid="false"
     fit-margin-top="0"
     fit-margin-left="0"
     fit-margin-right="0"
     fit-margin-bottom="0"
     inkscape:zoom="9.0769231"
     inkscape:cx="29.063559"
     inkscape:cy="13"
     inkscape:window-x="76"
     inkscape:window-y="558"
     inkscape:window-maximized="0"
     inkscape:current-layer="svg2" /><g
     id="icon-project-status"
     transform="translate(-0.5,0)" /><g
     id="icon-feature-types"
     transform="translate(-0.5,0)" /><g
     id="icon-map-data"
     transform="translate(-0.5,0)" /><g
     id="drawing_features"
     transform="translate(-0.5,0)" /><g
     id="Search_Filter_Icons_Specific_Size"
     transform="matrix(0.95454545,0,0,1,6.5000001,0)"
     inkscape:export-xdpi="90"
     inkscape:export-ydpi="90"><g
       id="bars"
       display="none"
       style="display:none"><g
         display="inline"
         id="g10"
         style="display:inline"><path
           d="m 274.7,27.2 c 0,2.8 -2.2,5 -5,5 h -290 c -2.8,0 -5,-2.2 -5,-5 v -30 c 0,-2.7 2.2,-5 5,-5 h 290 c 2.8,0 5,2.2 5,5 v 30 z"
           id="path12"
           inkscape:connector-curvature="0"
           style="fill:#2091ae" /></g></g><g
       id="_x35_13-document.png_2_"><g
         id="g15"><path
           d="m 16,13 h 1 c 0.6,0 1,-0.4 1,-1 0,-0.6 -0.4,-1 -1,-1 h -1 c -0.6,0 -1,0.4 -1,1 0,0.6 0.4,1 1,1 z m 1,6 h -1 c -0.6,0 -1,0.4 -1,1 0,0.6 0.4,1 1,1 h 1 c 0.6,0 1,-0.4 1,-1 0,-0.6 -0.4,-1 -1,-1 z M 8,7 h 6 C 14.6,7 15,6.6 15,6 15,5.4 14.6,5 14,5 H 8 C 7.4,5 7,5.4 7,6 7,6.6 7.4,7 8,7 z m 9,8 h -1 c -0.6,0 -1,0.4 -1,1 0,0.6 0.4,1 1,1 h 1 c 0.6,0 1,-0.4 1,-1 0,-0.6 -0.4,-1 -1,-1 z M 5,17 h 7 c 0.6,0 1,-0.4 1,-1 0,-0.6 -0.4,-1 -1,-1 H 5 c -0.6,0 -1,0.4 -1,1 0,0.6 0.4,1 1,1 z M 20,0 H 2 C 0.9,0 0,0.9 0,2 v 22 c 0,1.1 0.9,2 2,2 h 18 c 1.1,0 2,-0.9 2,-2 V 2 C 22,0.9 21.1,0 20,0 z m 0,24 H 2 V 2 H 20 V 24 z M 5,13 h 7 c 0.6,0 1,-0.4 1,-1 0,-0.6 -0.4,-1 -1,-1 H 5 c -0.6,0 -1,0.4 -1,1 0,0.6 0.4,1 1,1 z m 0,8 h 7 c 0.6,0 1,-0.4 1,-1 0,-0.6 -0.4,-1 -1,-1 H 5 c -0.6,0 -1,0.4 -1,1 0,0.6 0.4,1 1,1 z"
           id="path17"
           inkscape:connector-curvature="0"
           style="fill:#ffffff" /></g></g></g></svg>